<svg width="731" height="272" viewBox="0 0 731 272" fill="none" xmlns="http://www.w3.org/2000/svg">
<path d="M363 0.114208C343.23 2.54456 329.682 15.4547 325.597 35.7765C324.787 39.7754 324.528 42.2402 324.442 47.0147C324.339 51.8927 324.494 54.3058 325.183 58.3563C327.355 71.1975 334.008 84.4179 344.902 97.4832C352.072 106.067 362.38 116.133 376.1 127.923C383.874 134.594 398.818 146.607 399.352 146.607C399.455 146.607 408.436 138.868 419.329 129.423C430.223 119.96 440.754 110.824 442.736 109.101C450.872 102.051 455.681 97.1902 459.473 92.1226C464.506 85.4176 467.66 77.7302 468.47 70.2151C468.729 67.8192 468.694 63.286 468.401 60.7522C467.35 51.7375 463.885 44.1018 458.146 38.1379C454.991 34.863 452.544 33.0187 448.855 31.1399C443.684 28.52 438.686 27.3306 432.808 27.3306C429.412 27.3306 426.568 27.6926 423.225 28.5372C416.399 30.2781 410.935 33.3462 406.212 38.1035C405.143 39.1721 403.937 40.5166 403.506 41.0854C403.075 41.6714 402.679 42.1368 402.61 42.154C402.541 42.154 402.265 41.7404 402.024 41.2405C399.421 36.104 395.077 31.1227 390.596 28.1235C382.771 22.9009 371.567 21.4013 362.621 24.4004C352.21 27.8822 345.798 36.4488 344.54 48.5143C344.092 52.789 344.592 59.4767 345.66 63.9582C347.194 70.2668 351.366 77.4027 358.657 86.1761C365.189 94.0187 374.635 103.482 382.908 110.497C388.114 114.91 398.18 122.58 398.559 122.425C398.818 122.321 403.575 117.874 410.401 111.376C416.158 105.895 431.619 90.6058 432.687 89.3131L433.411 88.4685L429.275 84.4524L425.138 80.4363L416.002 89.5199C407.264 98.2244 397.87 107.308 397.628 107.308C397.473 107.308 393.664 104.257 390.837 101.896C378.186 91.2781 365.327 77.2131 360.07 68.2329C357.433 63.7514 356.502 60.5626 356.123 54.909C355.882 51.1515 356.244 47.5835 357.174 44.7395C359.277 38.2586 364.827 34.57 372.446 34.57C378.358 34.57 383.736 36.7245 387.286 40.5166C391.768 45.3083 394.664 52.0823 395.008 58.5459L395.112 60.3903L396.267 60.4937C396.904 60.5626 399.473 60.9591 401.972 61.3727C404.471 61.7864 406.557 62.0794 406.626 62.0105C406.678 61.9415 406.867 61.2348 407.022 60.442C407.746 56.9602 409.728 52.4098 411.797 49.4795C414.71 45.3945 418.933 42.2402 423.793 40.551C429.257 38.6378 434.945 38.4654 439.961 40.0339C447.735 42.4643 453.733 49.0831 455.974 57.6669C456.56 59.9249 456.732 61.028 456.922 63.579C457.611 73.5417 453.923 81.8842 444.615 91.4332C441.788 94.3289 438.703 97.1729 433.928 101.275C432.222 102.741 423.759 110.066 415.141 117.564C406.505 125.045 399.335 131.284 399.18 131.388C398.956 131.577 398.387 131.181 395.56 128.906C380.788 116.995 366.637 104.171 358.588 95.3631C339.869 74.9206 333.147 56.9602 337.077 37.8621C337.318 36.6728 337.904 34.5355 338.369 33.1221C342.661 20.0741 352.021 12.7313 365.793 11.6282C371.205 11.1801 376.083 12.3866 383.546 15.989C384.96 16.6613 386.114 17.1956 386.149 17.1439C386.183 17.1094 387.286 15.1272 388.579 12.7658C389.889 10.3872 391.147 8.12919 391.389 7.71551L391.802 6.97435L388.993 5.6299C384.012 3.23402 378.875 1.37249 374.807 0.493419C372.963 0.114216 372.273 0.0452722 368.516 0.0107992C366.189 -0.0236738 363.707 0.0280255 363 0.114208Z" fill="#A61923"/>
<path d="M285.092 139.3C284.851 139.334 284.075 139.455 283.368 139.558C280.955 139.92 278.094 141.006 276.129 142.35C274.198 143.66 272.251 145.936 271.13 148.142C270.182 150.055 269.872 151.555 269.872 154.278C269.872 156.191 269.941 156.967 270.234 158.001C271.32 161.965 274.198 165.378 278.111 167.326C280.576 168.567 282.955 169.119 286.385 169.291C296.365 169.791 303.725 164.775 305.172 156.484C306.62 148.142 301.518 141.385 292.435 139.61C291.107 139.351 286.005 139.127 285.092 139.3Z" fill="black"/>
<path d="M585.437 145.832C583.179 146.245 581.438 147.193 579.818 148.865C578.077 150.675 577.25 152.761 577.25 155.398C577.25 158.225 578.112 160.276 580.163 162.293C581.68 163.792 582.731 164.413 584.593 164.878C586.247 165.309 589.126 165.343 590.608 164.964C594.107 164.068 596.951 161.276 597.83 157.863C598.175 156.553 598.192 153.898 597.848 152.657C596.538 147.676 591.229 144.763 585.437 145.832Z" fill="black"/>
<path d="M639.474 148.935C635.424 149.487 631.391 150.986 628.65 152.934C625.134 155.433 622.255 159.398 620.859 163.655C619.877 166.654 619.618 168.533 619.532 173.101L619.446 177.289H613.689H607.932V183.839V190.389H613.706H619.48V218.485V246.58H627.581H635.682V218.485V190.389H645.162H654.643V183.839V177.289H644.973H635.303L635.389 173.704C635.458 170.826 635.545 169.878 635.838 168.792C636.768 165.258 639.078 163 642.525 162.225C644.111 161.863 647.024 161.863 648.73 162.225C650.23 162.535 652.247 163.293 653.574 164.052C654.074 164.345 654.522 164.534 654.574 164.5C654.608 164.448 655.66 161.725 656.901 158.415C658.641 153.744 659.09 152.383 658.917 152.262C656.263 150.469 653.005 149.383 648.782 148.866C646.817 148.608 641.508 148.66 639.474 148.935Z" fill="black"/>
<path d="M459.181 198.059V246.58H474.004H488.827V198.059V149.539H474.004H459.181V198.059Z" fill="black"/>
<path d="M0 200.817V246.58H15.1681H30.3362V235.29V223.983L33.7146 220.243C35.5589 218.192 37.1274 216.485 37.1964 216.468C37.2653 216.433 42.4018 223.138 48.6069 231.343C54.8121 239.548 59.9658 246.322 60.0864 246.425C60.2071 246.511 67.0328 246.563 78.0641 246.546L95.8522 246.494L76.7024 221.001C66.1709 206.971 57.5871 195.422 57.6216 195.319C57.6733 195.215 65.8607 186.149 75.8234 175.169C85.7861 164.207 93.9389 155.192 93.9389 155.14C93.9389 155.089 86.3893 155.054 77.1678 155.054H60.3967L45.5216 171.463C37.3343 180.495 30.5603 187.907 30.4741 187.942C30.4052 187.976 30.3362 180.599 30.3362 171.532V155.054H15.1681H0V200.817Z" fill="black"/>
<path d="M502.789 200.817V246.58H535.28H567.771L567.736 239.375L567.684 232.188L543.777 232.136L519.853 232.101V193.578V155.054H511.321H502.789V200.817Z" fill="black"/>
<path d="M318.703 169.016V179.013H313.79H308.878V189.786V200.558H313.79H318.703V211.28C318.703 217.261 318.789 222.707 318.875 223.569C319.737 231.291 322.478 237.083 327.097 240.944C331.492 244.598 336.887 246.718 344.127 247.631C346.712 247.976 353.779 247.907 356.537 247.545C360.777 246.976 364.086 246.097 366.741 244.839L368.154 244.167L366.81 240.237C366.069 238.082 364.5 233.532 363.345 230.119C362.173 226.706 361.173 223.845 361.105 223.776C361.036 223.69 360.432 223.897 359.777 224.241C358.088 225.086 356.658 225.414 354.641 225.448C353.124 225.448 352.797 225.396 351.952 225C350.59 224.379 349.659 223.466 349.004 222.139L348.436 220.984L348.384 210.78L348.332 200.558H355.675H363.001V189.786V179.013H355.675H348.35V169.016V159.019H333.526H318.703V169.016Z" fill="black"/>
<path d="M126.602 173.79C116.002 174.428 106.298 176.927 99.1963 180.874C98.3517 181.357 97.645 181.805 97.645 181.908C97.645 182.184 106.901 201.248 107.056 201.248C107.125 201.248 107.677 200.92 108.263 200.541C113.192 197.266 121.293 195.318 127.671 195.87C131.825 196.232 134.393 197.18 136.203 199.024C137.272 200.127 138.306 202.023 138.513 203.264L138.633 204.005H131.842C122.259 204.005 118.019 204.298 113.072 205.315C107.487 206.47 102.678 208.728 99.6444 211.641C95.094 216.037 93.1807 223.121 94.6286 230.239C96.3178 238.496 102.471 244.58 111.4 246.855C114.451 247.631 116.467 247.838 120.656 247.838C124.913 247.838 127.085 247.562 129.963 246.666C134.721 245.166 138.409 242.253 140.46 238.392L140.909 237.53L140.96 242.046L140.995 246.58H154.801H168.59L168.521 225.327C168.453 202.54 168.453 202.609 167.522 198.093C164.488 183.201 153.112 174.996 133.928 173.842C131.273 173.686 128.619 173.669 126.602 173.79ZM138.926 220.846V223.379L138.237 224.81C136.531 228.309 133.204 230.188 129.015 229.981C126.826 229.877 125.637 229.447 124.379 228.292C123.121 227.137 122.655 226.068 122.655 224.258C122.655 221.535 124.086 219.725 126.895 218.915C128.343 218.501 130.256 218.363 134.841 218.329L138.926 218.312V220.846Z" fill="black"/>
<path d="M226.574 173.772C221.317 174.186 217.197 175.289 214.043 177.133C212.768 177.875 211.337 178.978 210.165 180.098L209.424 180.805V177.926V175.048H195.376H181.328V223.482V271.917H196.152H210.975V256.921V241.925L212.543 243.115C218.611 247.717 228.591 249.182 237.898 246.838C249.154 243.977 257.858 235.772 261.547 224.517C263.029 219.983 263.46 216.898 263.46 210.814C263.46 204.798 263.029 201.816 261.478 197.111C257.6 185.304 247.809 176.616 235.813 174.358C232.814 173.79 229.263 173.566 226.574 173.772ZM225.609 197.386C229.78 198.783 232.469 202.282 233.313 207.418C233.675 209.659 233.555 213.658 233.038 215.709C232.624 217.415 231.641 219.466 230.59 220.828C227.539 224.775 221.61 225.982 216.853 223.638C214.043 222.241 211.923 219.466 210.94 215.898C210.596 214.588 210.544 214.054 210.544 210.9C210.544 206.866 210.734 205.763 211.837 203.402C213.647 199.506 216.18 197.628 220.627 196.869C221.679 196.68 224.333 196.955 225.609 197.386Z" fill="black"/>
<path d="M404.455 173.79C393.854 174.428 384.15 176.927 377.049 180.874C376.204 181.357 375.498 181.805 375.498 181.908C375.498 182.184 384.754 201.248 384.909 201.248C384.978 201.248 385.529 200.92 386.115 200.541C391.045 197.266 399.146 195.318 405.524 195.87C409.677 196.232 412.246 197.18 414.056 199.024C415.124 200.127 416.158 202.023 416.365 203.264L416.486 204.005H409.695C400.111 204.005 395.871 204.298 390.924 205.315C385.34 206.47 380.531 208.728 377.497 211.641C372.947 216.037 371.033 223.121 372.481 230.239C374.17 238.496 380.324 244.58 389.252 246.855C392.303 247.631 394.32 247.838 398.508 247.838C402.766 247.838 404.937 247.562 407.816 246.666C412.573 245.166 416.262 242.253 418.313 238.392L418.761 237.53L418.813 242.046L418.847 246.58H432.654H446.443L446.374 225.327C446.305 202.54 446.305 202.609 445.374 198.093C442.341 183.201 430.965 174.996 411.78 173.842C409.126 173.686 406.472 173.669 404.455 173.79ZM416.779 220.846V223.379L416.089 224.81C414.383 228.309 411.056 230.188 406.868 229.981C404.679 229.877 403.49 229.447 402.231 228.292C400.973 227.137 400.508 226.068 400.508 224.258C400.508 221.535 401.938 219.725 404.748 218.915C406.196 218.501 408.109 218.363 412.694 218.329L416.779 218.312V220.846Z" fill="black"/>
<path d="M272.854 210.814V246.58H287.677H302.5V210.814V175.049H287.677H272.854V210.814Z" fill="black"/>
<path d="M691.787 175.91C681.962 176.634 673.637 180.615 667.466 187.493C663.209 192.267 660.468 198.007 659.262 204.695C658.745 207.573 658.624 213.623 659.02 216.726C660.037 224.62 663.209 231.308 668.449 236.565C674.568 242.684 682.428 246.252 692.046 247.286C694.821 247.579 700.422 247.527 703.232 247.2C709.489 246.441 715.039 244.511 719.538 241.495C721.589 240.133 724.312 237.84 725.053 236.841C725.467 236.324 725.502 236.203 725.295 235.944C725.157 235.772 723.192 233.514 720.934 230.894C718.659 228.291 716.78 226.12 716.763 226.085C716.728 226.051 716.142 226.551 715.453 227.188C712.247 230.118 708.179 232.204 703.715 233.169C702.181 233.514 701.439 233.549 697.82 233.566C693.373 233.566 692.149 233.411 689.167 232.514C687.34 231.98 684.013 230.291 682.548 229.188C680.273 227.447 678.239 224.999 676.895 222.31C676.309 221.138 675.43 218.622 675.257 217.57L675.137 216.933H702.525H729.914L730.018 215.76C730.19 213.968 730.155 209.607 729.949 207.521C729.052 198.438 725.674 191.164 719.555 185.269C714.384 180.271 707.817 177.168 700.319 176.185C697.751 175.841 694.166 175.737 691.787 175.91ZM697.372 189.354C702.112 189.854 705.973 191.612 709.092 194.749C711.781 197.421 713.901 201.627 714.384 205.212L714.505 206.074H694.734H674.964L675.068 205.419C675.55 202.644 676.791 199.472 678.256 197.266C679.394 195.577 681.893 193.215 683.686 192.164C687.702 189.785 692.304 188.837 697.372 189.354Z" fill="black"/>
<path d="M579.664 211.676V246.58H587.765H595.866V211.676V176.772H587.765H579.664V211.676Z" fill="black"/>
</svg>
